HIERARCHY
ROOT Hips
{
	OFFSET 0.00000 0.00000 0.00000
	CHANNELS 6 Xposition Yposition Zposition Zrotation Yrotation Xrotation 
	JOINT LHipJoint
	{
		OFFSET 0 0 0
		CHANNELS 3 Zrotation Yrotation Xrotation
		JOINT LeftUpLeg
		{
			OFFSET 1.55766 -1.60504 1.11378
			CHANNELS 3 Zrotation Yrotation Xrotation
			JOINT LeftLeg
			{
				OFFSET 2.29047 -6.29302 0.00000
				CHANNELS 3 Zrotation Yrotation Xrotation
				JOINT LeftFoot
				{
					OFFSET 2.52265 -6.93093 0.00000
					CHANNELS 3 Zrotation Yrotation Xrotation
					JOINT LeftToeBase
					{
						OFFSET 0.17633 -0.48446 2.02656
						CHANNELS 3 Zrotation Yrotation Xrotation
						End Site
						{
							OFFSET 0.00000 -0.00000 1.04989
						}
					}
				}
			}
		}
	}
	JOINT RHipJoint
	{
		OFFSET 0 0 0
		CHANNELS 3 Zrotation Yrotation Xrotation
		JOINT RightUpLeg
		{
			OFFSET -1.48599 -1.60504 1.11378
			CHANNELS 3 Zrotation Yrotation Xrotation
			JOINT RightLeg
			{
				OFFSET -2.27280 -6.24448 0.00000
				CHANNELS 3 Zrotation Yrotation Xrotation
				JOINT RightFoot
				{
					OFFSET -2.50834 -6.89161 0.00000
					CHANNELS 3 Zrotation Yrotation Xrotation
					JOINT RightToeBase
					{
						OFFSET -0.26967 -0.74090 2.08741
						CHANNELS 3 Zrotation Yrotation Xrotation
						End Site
						{
							OFFSET -0.00000 -0.00000 1.10614
						}
					}
				}
			}
		}
	}
	JOINT LowerBack
	{
		OFFSET 0 0 0
		CHANNELS 3 Zrotation Yrotation Xrotation
		JOINT Spine
		{
			OFFSET 0.06481 2.02437 -0.08472
			CHANNELS 3 Zrotation Yrotation Xrotation
			JOINT Spine1
			{
				OFFSET 0.00015 1.96711 0.18069
				CHANNELS 3 Zrotation Yrotation Xrotation
				JOINT Neck
				{
					OFFSET 0 0 0
					CHANNELS 3 Zrotation Yrotation Xrotation
					JOINT Neck1
					{
						OFFSET -0.29961 1.68293 -0.13041
						CHANNELS 3 Zrotation Yrotation Xrotation
						JOINT Head
						{
							OFFSET 0.59697 1.61501 -0.14669
							CHANNELS 3 Zrotation Yrotation Xrotation
							End Site
							{
								OFFSET 0.22973 1.74906 -0.10148
							}
						}
					}
				}
				JOINT LeftShoulder
				{
					OFFSET 0 0 0
					CHANNELS 3 Zrotation Yrotation Xrotation
					JOINT LeftArm
					{
						OFFSET 3.37968 1.02893 0.31147
						CHANNELS 3 Zrotation Yrotation Xrotation
						JOINT LeftForeArm
						{
							OFFSET 5.19807 -0.00000 -0.00000
							CHANNELS 3 Zrotation Yrotation Xrotation
							JOINT LeftHand
							{
								OFFSET 3.09370 -0.00000 -0.00000
								CHANNELS 3 Zrotation Yrotation Xrotation
								JOINT LeftFingerBase
								{
									OFFSET 0 0 0
									CHANNELS 3 Zrotation Yrotation Xrotation
									JOINT LeftHandIndex1
									{
										OFFSET 0.67263 -0.00000 -0.00000
										CHANNELS 3 Zrotation Yrotation Xrotation
										End Site
										{
											OFFSET 0.54229 -0.00000 -0.00000
										}
									}
								}
								JOINT LThumb
								{
									OFFSET 0 0 0
									CHANNELS 3 Zrotation Yrotation Xrotation
									End Site
									{
										OFFSET 0.55057 -0.00000 0.55057
									}
								}
							}
						}
					}
				}
				JOINT RightShoulder
				{
					OFFSET 0 0 0
					CHANNELS 3 Zrotation Yrotation Xrotation
					JOINT RightArm
					{
						OFFSET -3.38254 0.96355 -0.16120
						CHANNELS 3 Zrotation Yrotation Xrotation
						JOINT RightForeArm
						{
							OFFSET -5.45222 -0.00000 -0.00000
							CHANNELS 3 Zrotation Yrotation Xrotation
							JOINT RightHand
							{
								OFFSET -3.01284 -0.00000 -0.00000
								CHANNELS 3 Zrotation Yrotation Xrotation
								JOINT RightFingerBase
								{
									OFFSET 0 0 0
									CHANNELS 3 Zrotation Yrotation Xrotation
									JOINT RightHandIndex1
									{
										OFFSET -0.62230 -0.00000 -0.00000
										CHANNELS 3 Zrotation Yrotation Xrotation
										End Site
										{
											OFFSET -0.50171 -0.00000 -0.00000
										}
									}
								}
								JOINT RThumb
								{
									OFFSET 0 0 0
									CHANNELS 3 Zrotation Yrotation Xrotation
									End Site
									{
										OFFSET -0.50937 -0.00000 0.50937
									}
								}
							}
						}
					}
				}
			}
		}
	}
}
MOTION
Frames: 15
Frame Time: .0083333
3.5771 16.2946 -19.1013 341.7320 -74.0031 27.2149 0.0000 0.0000 0.0000 -28.8385 -10.9288 -16.6951 2.9181 10.5613 30.8141 -0.4112 -19.6827 -10.0748 0.4093 4.1069 11.3777 0.0000 0.0000 0.0000 5.2242 30.1237 -35.9221 -3.3547 -11.2482 33.1214 -0.3366 5.6196 -10.4564 -2.5283 9.8891 -28.6184 0.9274 0.4265 -0.8076 -1.2076 0.3352 -7.9338 -1.7948 -0.0271 -7.8230 -30.4679 -8.1967 10.1240 38.3196 -17.6570 3.3985 18.8778 -10.2842 6.1356 0.0000 0.0000 0.0000 -73.6727 2.4087 41.2145 58.3484 -55.8535 -32.9705 -0.0000 0.0000 -56.0243 23.4550 9.4221 4.0628 -7.1250 0.0000 -0.0000 -3.0807 40.2148 0.3638 0.0000 0.0000 0.0000 73.1763 -3.4976 30.5363 -48.7933 52.4971 -25.2136 0.0000 -0.0000 -13.8966 -19.8963 -27.8776 9.6051 7.1250 -0.0000 -0.0000 12.0265 -58.9348 -4.1334
3.5009 16.3010 -19.0798 342.7050 -72.9414 26.3246 0.0000 0.0000 0.0000 -28.7753 -11.2084 -16.1473 2.8758 10.4912 30.5825 -0.5181 -20.3040 -9.6002 0.4600 4.3507 12.0654 0.0000 0.0000 0.0000 5.4074 29.9688 -36.2986 -3.1335 -10.9081 31.9705 -0.2778 6.8663 -9.8636 -2.5849 9.9907 -28.9466 0.9583 0.3984 -0.7690 -1.2138 0.3010 -7.9472 -1.8172 -0.0457 -7.8615 -30.4228 -8.3341 10.2353 38.3563 -17.8337 3.2020 18.8419 -10.3786 6.1341 -0.0000 -0.0000 0.0000 -73.7266 2.2599 41.3638 58.2217 -55.8172 -32.8657 -0.0000 0.0000 -55.8018 23.5843 9.3254 4.0464 -7.1250 0.0000 -0.0000 -2.9567 40.1210 0.3560 -0.0000 -0.0000 0.0000 73.1907 -3.5572 30.3753 -48.7586 52.4824 -25.1861 0.0000 -0.0000 -13.8422 -19.9596 -27.8578 9.6315 7.1250 -0.0000 -0.0000 11.9465 -58.9295 -4.1040
3.4249 16.3073 -19.0571 343.5640 -71.9337 25.5545 0.0000 0.0000 0.0000 -28.7290 -11.4473 -15.6204 2.8327 10.4192 30.3453 -0.6305 -20.9125 -9.0846 0.5174 4.6104 12.8006 0.0000 0.0000 0.0000 5.6335 29.7857 -36.6679 -2.9187 -10.5622 30.8173 -0.2087 8.0981 -9.2566 -2.6304 10.0712 -29.2076 0.9688 0.3784 -0.7308 -1.2213 0.2767 -7.9617 -1.8301 -0.0582 -7.9006 -30.3878 -8.4644 10.3238 38.3889 -17.9946 3.0139 18.8076 -10.4630 6.1333 0.0000 -0.0000 0.0000 -73.7961 2.1274 41.4474 58.0869 -55.7782 -32.7542 -0.0000 0.0000 -55.5339 23.6908 9.2672 4.0418 -7.1250 0.0000 -0.0000 -2.8571 40.0671 0.3478 0.0000 -0.0000 0.0000 73.1992 -3.5942 30.2513 -48.7190 52.4656 -25.1547 0.0000 -0.0000 -13.7941 -20.0460 -27.8491 9.6732 7.1250 -0.0000 -0.0000 11.8478 -58.9405 -4.0725
3.3492 16.3136 -19.0326 344.3510 -70.9606 24.8643 0.0000 0.0000 0.0000 -28.6977 -11.6650 -15.1101 2.7895 10.3463 30.1055 -0.7487 -21.5054 -8.5188 0.5839 4.8928 13.6032 0.0000 0.0000 0.0000 5.8905 29.5798 -37.0230 -2.7098 -10.2098 29.6587 -0.1308 9.2796 -8.6363 -2.6612 10.1252 -29.3832 0.9581 0.3506 -0.6902 -1.2179 0.2413 -7.9809 -1.8190 -0.0744 -7.9468 -30.3760 -8.5810 10.3813 38.4089 -18.1308 2.8470 18.7755 -10.5317 6.1348 0.0000 -0.0000 0.0000 -73.8713 2.0316 41.4711 57.9696 -55.7442 -32.6572 -0.0000 0.0000 -55.2756 23.7822 9.2331 4.0446 -7.1250 0.0000 -0.0000 -2.7735 40.0380 0.3396 0.0000 -0.0000 0.0000 73.1871 -3.6024 30.1948 -48.6735 52.4463 -25.1186 0.0000 -0.0000 -13.7617 -20.1409 -27.8618 9.7260 7.1250 -0.0000 -0.0000 11.7521 -58.9749 -4.0488
3.2738 16.3200 -19.0063 345.0460 -70.0092 24.2685 0.0000 0.0000 0.0000 -28.6665 -11.8719 -14.6102 2.7462 10.2724 29.8634 -0.8698 -22.0713 -7.9171 0.6548 5.1757 14.4105 0.0000 0.0000 0.0000 6.1868 29.3674 -37.3542 -2.5074 -9.8514 28.4967 -0.0475 10.3777 -8.0169 -2.6855 10.1677 -29.5214 0.9452 0.3111 -0.6421 -1.2001 0.1908 -8.0090 -1.7906 -0.0978 -8.0077 -30.3833 -8.6794 10.4159 38.4142 -18.2384 2.7056 18.7453 -10.5835 6.1358 0.0000 -0.0000 0.0000 -73.9739 1.9955 41.4241 57.8737 -55.7162 -32.5779 -0.0000 0.0000 -55.0075 23.8357 9.2352 4.0556 -7.1250 0.0000 -0.0000 -2.7270 40.0448 0.3334 0.0000 -0.0000 0.0000 73.1576 -3.5915 30.2099 -48.6222 52.4245 -25.0780 0.0000 -0.0000 -13.7426 -20.2524 -27.8870 9.7915 7.1250 -0.0000 -0.0000 11.6452 -59.0257 -4.0256
3.1987 16.3266 -18.9780 345.6740 -69.0583 23.7464 0.0000 0.0000 0.0000 -28.6297 -12.0738 -14.1216 2.7025 10.1971 29.6174 -0.9952 -22.6234 -7.2737 0.7283 5.4529 15.2049 0.0000 0.0000 0.0000 6.5203 29.1371 -37.6679 -2.3128 -9.4893 27.3382 0.0388 11.3920 -7.4080 -2.7054 10.2022 -29.6340 0.9333 0.2517 -0.5904 -1.1648 0.1140 -8.0491 -1.7425 -0.1339 -8.0848 -30.4226 -8.7546 10.4405 38.4136 -18.3164 2.5863 18.7267 -10.6199 6.1353 -0.0000 -0.0000 0.0000 -74.0944 2.0230 41.3107 57.8045 -55.6960 -32.5208 -0.0000 0.0000 -54.7458 23.8624 9.2608 4.0719 -7.1250 0.0000 -0.0000 -2.7063 40.0748 0.3289 -0.0000 -0.0000 0.0000 73.1052 -3.5668 30.3021 -48.5679 52.4013 -25.0350 0.0000 -0.0000 -13.7350 -20.3583 -27.9197 9.8566 7.1250 -0.0000 -0.0000 11.5488 -59.0827 -4.0075
3.1233 16.3333 -18.9479 346.2570 -68.1069 23.2673 0.0000 0.0000 0.0000 -28.5947 -12.2611 -13.6318 2.6577 10.1191 29.3632 -1.1253 -23.1661 -6.5873 0.8041 5.7232 15.9833 0.0000 0.0000 0.0000 6.8907 28.8872 -37.9557 -2.1283 -9.1283 26.1975 0.1239 12.3176 -6.8448 -2.7211 10.2293 -29.7224 0.8988 0.1504 -0.5264 -1.0806 -0.0177 -8.1066 -1.6268 -0.1941 -8.1898 -30.5460 -8.7859 10.4341 38.3877 -18.3388 2.5254 18.7273 -10.6257 6.1401 0.0000 0.0000 0.0000 -74.2868 2.1535 41.0742 57.7658 -55.6846 -32.4888 -0.0000 0.0000 -54.4923 23.8746 9.2889 4.0864 -7.1250 0.0000 -0.0000 -2.6987 40.1065 0.3258 0.0000 0.0000 0.0000 72.9770 -3.5210 30.5424 -48.5114 52.3772 -24.9902 0.0000 -0.0000 -13.7473 -20.4661 -27.9694 9.9282 7.1250 -0.0000 -0.0000 11.4595 -59.1572 -3.9965
3.0473 16.3400 -18.9159 346.8060 -67.1521 22.8185 0.0000 0.0000 0.0000 -28.5644 -12.4389 -13.1297 2.6112 10.0373 29.0975 -1.2589 -23.6900 -5.8520 0.8853 5.9978 16.7781 0.0000 0.0000 0.0000 7.3075 28.6027 -38.2224 -1.9566 -8.7751 25.0944 0.2052 13.1700 -6.3582 -2.7290 10.2428 -29.7667 0.8517 0.0197 -0.4516 -0.9681 -0.1880 -8.1756 -1.4710 -0.2716 -8.3145 -30.7005 -8.7890 10.3927 38.3320 -18.3182 2.5111 18.7278 -10.6053 6.1456 -0.0000 0.0000 0.0000 -74.4945 2.3639 40.7874 57.7718 -55.6864 -32.4938 -0.0000 0.0000 -54.2846 23.9038 9.3019 4.0977 -7.1250 0.0000 -0.0000 -2.6745 40.1230 0.3218 -0.0000 0.0000 0.0000 72.8014 -3.4671 30.8771 -48.4586 52.3546 -24.9484 0.0000 -0.0000 -13.7621 -20.5140 -27.9975 9.9621 7.1250 -0.0000 -0.0000 11.4234 -59.1964 -3.9944
2.9704 16.3467 -18.8820 347.3360 -66.2023 22.3884 0.0000 0.0000 0.0000 -28.5451 -12.5836 -12.6236 2.5628 9.9512 28.8188 -1.3951 -24.2043 -5.0859 0.9642 6.2521 17.5175 0.0000 0.0000 0.0000 7.7827 28.2582 -38.4831 -1.8004 -8.4373 24.0504 0.2830 13.9827 -5.9641 -2.7181 10.2240 -29.7052 0.7908 -0.1352 -0.3796 -0.8371 -0.3907 -8.2519 -1.2849 -0.3632 -8.4455 -30.8870 -8.7633 10.3251 38.2632 -18.2567 2.5334 18.7380 -10.5621 6.1509 -0.0000 0.0000 0.0000 -74.7021 2.6323 40.4480 57.8067 -55.6966 -32.5226 -0.0000 0.0000 -54.1211 23.9595 9.2951 4.1054 -7.1250 0.0000 -0.0000 -2.6250 40.1204 0.3160 -0.0000 0.0000 0.0000 72.6017 -3.4002 31.2943 -48.4074 52.3326 -24.9078 0.0000 -0.0000 -13.7809 -20.5556 -28.0274 9.9933 7.1250 -0.0000 -0.0000 11.3949 -59.2359 -3.9951
2.8922 16.3532 -18.8466 347.8560 -65.2656 21.9694 0.0000 0.0000 0.0000 -28.5409 -12.6902 -12.1164 2.5129 9.8614 28.5291 -1.5340 -24.7082 -4.2826 1.0462 6.5046 18.2559 0.0000 0.0000 0.0000 8.3295 27.8270 -38.7501 -1.6614 -8.1220 23.0853 0.3599 14.7900 -5.6513 -2.6752 10.1498 -29.4631 0.7272 -0.2863 -0.3262 -0.7251 -0.5896 -8.3189 -1.1169 -0.4530 -8.5543 -31.0323 -8.7404 10.2398 38.1948 -18.1888 2.5522 18.7388 -10.5134 6.1511 -0.0000 -0.0000 0.0000 -74.8540 2.8969 40.1284 57.8527 -55.7101 -32.5606 -0.0000 0.0000 -54.0082 24.0194 9.2788 4.1099 -7.1250 0.0000 -0.0000 -2.5709 40.1080 0.3103 -0.0000 -0.0000 0.0000 72.4423 -3.3219 31.6919 -48.3590 52.3118 -24.8695 0.0000 -0.0000 -13.7884 -20.5558 -28.0481 10.0000 7.1250 -0.0000 -0.0000 11.4066 -59.2568 -4.0050
2.8125 16.3593 -18.8098 348.3630 -64.3453 21.5718 0.0000 0.0000 0.0000 -28.5463 -12.7477 -11.6247 2.4624 9.7693 28.2327 -1.6768 -25.2113 -3.4403 1.1321 6.7578 18.9999 0.0000 0.0000 0.0000 8.9605 27.2975 -39.0394 -1.5406 -7.8354 22.2153 0.4372 15.6002 -5.4107 -2.6067 10.0293 -29.0718 0.6703 -0.4151 -0.3055 -0.6530 -0.7607 -8.3718 -0.9964 -0.5307 -8.6273 -31.1181 -8.7354 10.1636 38.1538 -18.1401 2.5347 18.7358 -10.4762 6.1448 -0.0000 -0.0000 0.0000 -74.9212 3.1197 39.8753 57.8943 -55.7222 -32.5950 -0.0000 0.0000 -53.9406 24.1008 9.2690 4.1212 -7.1250 0.0000 -0.0000 -2.4985 40.1043 0.3018 -0.0000 -0.0000 0.0000 72.3577 -3.2429 32.0130 -48.3150 52.2929 -24.8347 0.0000 -0.0000 -13.7800 -20.5320 -28.0496 9.9881 7.1250 -0.0000 -0.0000 11.4336 -59.2527 -4.0135
2.7313 16.3653 -18.7713 348.8640 -63.4361 21.1904 0.0000 0.0000 0.0000 -28.5617 -12.7662 -11.1453 2.4121 9.6763 27.9347 -1.8229 -25.7096 -2.5523 1.2255 7.0213 19.7784 0.0000 0.0000 0.0000 9.6851 26.6470 -39.3550 -1.4380 -7.5816 21.4503 0.5194 16.4374 -5.2031 -2.5132 9.8618 -28.5303 0.6141 -0.5208 -0.3110 -0.6156 -0.9033 -8.4174 -0.9151 -0.5956 -8.6763 -31.1533 -8.7473 10.1192 38.1441 -18.1161 2.4730 18.7337 -10.4556 6.1291 -0.0000 -0.0000 0.0000 -74.9195 3.3062 39.6858 57.9147 -55.7282 -32.6118 -0.0000 0.0000 -53.9062 24.1757 9.2668 4.1346 -7.1250 0.0000 -0.0000 -2.4326 40.1083 0.2936 -0.0000 -0.0000 0.0000 72.3431 -3.1787 32.2484 -48.2771 52.2766 -24.8048 0.0000 -0.0000 -13.7586 -20.4595 -28.0383 9.9468 7.1250 -0.0000 -0.0000 11.5062 -59.2246 -4.0316
2.6487 16.3711 -18.7307 349.3430 -62.5350 20.8360 0.0000 0.0000 0.0000 -28.5800 -12.7589 -10.6756 2.3630 9.5845 27.6415 -1.9699 -26.1913 -1.6177 1.3273 7.2960 20.5954 0.0000 0.0000 0.0000 10.5064 25.8851 -39.6937 -1.3527 -7.3626 20.7943 0.6089 17.3114 -5.0135 -2.4114 9.6750 -27.9304 0.5614 -0.6066 -0.3374 -0.6025 -1.0203 -8.4577 -0.8634 -0.6490 -8.7067 -31.1528 -8.7726 10.1102 38.1671 -18.1142 2.3669 18.7375 -10.4510 6.1045 -0.0000 -0.0000 0.0000 -74.8858 3.4646 39.5364 57.9013 -55.7242 -32.6007 -0.0000 0.0000 -53.8746 24.2365 9.2721 4.1487 -7.1250 0.0000 -0.0000 -2.3800 40.1193 0.2866 -0.0000 -0.0000 0.0000 72.3805 -3.1300 32.4089 -48.2479 52.2639 -24.7816 0.0000 -0.0000 -13.7286 -20.3592 -28.0107 9.8860 7.1250 -0.0000 -0.0000 11.5998 -59.1738 -4.0508
2.5650 16.3765 -18.6878 349.8020 -61.6244 20.5091 0.0000 0.0000 0.0000 -28.5992 -12.7644 -10.2043 2.3156 9.4946 27.3552 -2.1121 -26.6341 -0.6532 1.4294 7.5598 21.3847 0.0000 0.0000 0.0000 11.4154 25.0069 -40.0598 -1.2836 -7.1794 20.2479 0.7138 18.2671 -4.7973 -2.3047 9.4739 -27.2892 0.5233 -0.6695 -0.3849 -0.6157 -1.1076 -8.4929 -0.8502 -0.6899 -8.7190 -31.1045 -8.8169 10.1376 38.2135 -18.1390 2.2142 18.7380 -10.4639 6.0690 0.0000 0.0000 0.0000 -74.8125 3.5841 39.4547 57.8582 -55.7117 -32.5652 -0.0000 0.0000 -53.8569 24.2698 9.2886 4.1624 -7.1250 0.0000 -0.0000 -2.3525 40.1401 0.2820 0.0000 0.0000 0.0000 72.4670 -3.1034 32.4768 -48.2328 52.2574 -24.7697 0.0000 -0.0000 -13.7021 -20.2358 -27.9793 9.8121 7.1250 -0.0000 -0.0000 11.7162 -59.1139 -4.0753
2.4802 16.3813 -18.6419 350.2380 -60.7119 20.2087 0.0000 0.0000 0.0000 -28.6176 -12.7604 -9.7441 2.2717 9.4105 27.0880 -2.2534 -27.0522 0.3815 1.5411 7.8364 22.2184 0.0000 0.0000 0.0000 12.3875 24.0504 -40.4388 -1.2283 -7.0290 19.8014 0.8428 19.3426 -4.5138 -2.1849 9.2410 -26.5522 0.4908 -0.7298 -0.4526 -0.6247 -1.1910 -8.5294 -0.8363 -0.7291 -8.7208 -31.0856 -8.8536 10.2016 38.2864 -18.1646 2.0359 18.7623 -10.4831 6.0275 0.0000 0.0000 0.0000 -74.7579 3.7039 39.3695 57.7863 -55.6906 -32.5057 -0.0000 0.0000 -53.8385 24.2895 9.3088 4.1752 -7.1250 0.0000 -0.0000 -2.3374 40.1638 0.2789 0.0000 0.0000 0.0000 72.5417 -3.0884 32.5400 -48.2350 52.2583 -24.7714 0.0000 -0.0000 -13.6885 -20.1062 -27.9503 9.7360 7.1250 -0.0000 -0.0000 11.8404 -59.0552 -4.1026
